<svg xmlns="http://www.w3.org/2000/svg" width="13.5" height="32" viewBox="0 0 13.5 32">
  <path id="botulinica" d="M12.09,26.879,11.1,23.873l1.792-.616a.631.631,0,0,0,.364-.323.653.653,0,0,0,.032-.492L8.662,8.408l.6-.206a.647.647,0,0,0,.4-.815.627.627,0,0,0-.8-.4l-1.195.411L7,7.621l-2.012-6.1.659-.227a.647.647,0,0,0,.4-.815.627.627,0,0,0-.8-.4L1.73,1.284h0L.473,1.716a.645.645,0,0,0-.421.714.634.634,0,0,0,.622.54.606.606,0,0,0,.2-.034l.66-.227,2.011,6.1-1.854.638a.645.645,0,0,0-.421.714.634.634,0,0,0,.622.54.606.606,0,0,0,.2-.034l.6-.206,1,3.049v0h0l1.2,3.656v0h0L7.316,24.5a.638.638,0,0,0,.316.372.616.616,0,0,0,.481.033l1.792-.617.79,2.4C9.339,26.481,12.09,26.879,12.09,26.879ZM2.728,2.3,3.8,1.93l2.012,6.1-.534.184L4.74,8.4ZM8.309,23.474l-.8-2.44.6-.206a.647.647,0,0,0,.4-.816.627.627,0,0,0-.8-.4l-.6.205-.8-2.44.6-.2a.647.647,0,0,0,.4-.815.627.627,0,0,0-.8-.406l-.6.205-.8-2.44.6-.206a.647.647,0,0,0,.4-.816.627.627,0,0,0-.8-.4l-.6.205-.8-2.44L7.467,8.819l4.424,13.423ZM10.7,26.68l1.622,4.92a.627.627,0,0,0,.8.4.647.647,0,0,0,.4-.815L12.09,26.879Z" transform="translate(-0.044 -0.038)" fill="#ac7d3d"/>
</svg>
