<svg xmlns="http://www.w3.org/2000/svg" width="32" height="29.996" viewBox="0 0 32 29.996">
  <path id="facetasResinas" d="M29,20.605v-.1A1.5,1.5,0,0,0,27.5,19h-3a1.488,1.488,0,0,0-.558.11A1.5,1.5,0,0,0,22.5,18h-3a1.488,1.488,0,0,0-.558.11A1.5,1.5,0,0,0,17.5,17h-3a1.5,1.5,0,0,0-1.442,1.11A1.488,1.488,0,0,0,12.5,18h-3a1.5,1.5,0,0,0-1.442,1.11A1.488,1.488,0,0,0,7.5,19h-3A1.5,1.5,0,0,0,3,20.5v.089a2.493,2.493,0,0,0-3,2.451V28.5A2.5,2.5,0,0,0,3.047,30.93a60.829,60.829,0,0,1,25.928.01,2.545,2.545,0,0,0,.533.057A2.5,2.5,0,0,0,32,28.5v-5.47a2.473,2.473,0,0,0-.932-1.939A2.522,2.522,0,0,0,29,20.605Zm-5-.1a.5.5,0,0,1,.5-.5h3a.5.5,0,0,1,.5.5V23a2,2,0,0,1-4,0Zm-5-1a.5.5,0,0,1,.5-.5h3a.5.5,0,0,1,.5.5V23a2,2,0,0,1-4,0Zm-5-1a.5.5,0,0,1,.5-.5h3a.5.5,0,0,1,.5.5V23a2,2,0,0,1-4,0Zm-5,1a.5.5,0,0,1,.5-.5h3a.5.5,0,0,1,.5.5V23a2,2,0,0,1-4,0Zm-5,1a.5.5,0,0,1,.5-.5h3a.5.5,0,0,1,.5.5V23a2,2,0,0,1-4,0Zm27,8a1.495,1.495,0,0,1-1.812,1.462,61.837,61.837,0,0,0-26.356-.01,1.506,1.506,0,0,1-1.274-.293A1.48,1.48,0,0,1,1,28.5v-5.46a1.5,1.5,0,0,1,1.864-1.46L3,21.609V23a3,3,0,0,0,5.5,1.652,2.993,2.993,0,0,0,5,0,2.993,2.993,0,0,0,5,0,2.993,2.993,0,0,0,5,0A3,3,0,0,0,29,23V21.615l.169-.035a1.506,1.506,0,0,1,1.274.293A1.478,1.478,0,0,1,31,23.031Zm.063-26.954a2.465,2.465,0,0,0-2.09-.484,60.624,60.624,0,0,1-25.927,0,2.516,2.516,0,0,0-2.119.5A2.48,2.48,0,0,0,0,3.5v5.46A2.477,2.477,0,0,0,3,11.4v.1A1.5,1.5,0,0,0,4.5,13h3a1.488,1.488,0,0,0,.558-.11A1.5,1.5,0,0,0,9.5,14h3a1.488,1.488,0,0,0,.558-.11A1.5,1.5,0,0,0,14.5,15h3a1.5,1.5,0,0,0,1.442-1.11A1.488,1.488,0,0,0,19.5,14h3a1.5,1.5,0,0,0,1.442-1.11A1.488,1.488,0,0,0,24.5,13h3A1.5,1.5,0,0,0,29,11.5v-.093a2.56,2.56,0,0,0,.493.053,2.511,2.511,0,0,0,1.58-.559A2.479,2.479,0,0,0,32,8.962V3.5a2.492,2.492,0,0,0-.937-1.954ZM8,11.5a.5.5,0,0,1-.5.5h-3a.5.5,0,0,1-.5-.5V9A2,2,0,0,1,8,9Zm5,1a.5.5,0,0,1-.5.5h-3a.5.5,0,0,1-.5-.5V9a2,2,0,0,1,4,0Zm5,1a.5.5,0,0,1-.5.5h-3a.5.5,0,0,1-.5-.5V9a2,2,0,0,1,4,0Zm5-1a.5.5,0,0,1-.5.5h-3a.5.5,0,0,1-.5-.5V9a2,2,0,0,1,4,0Zm5-1a.5.5,0,0,1-.5.5h-3a.5.5,0,0,1-.5-.5V9a2,2,0,0,1,4,0Zm3-2.537a1.483,1.483,0,0,1-.555,1.159,1.571,1.571,0,0,1-1.364.285L29,10.389V9a3,3,0,0,0-5.5-1.652,2.993,2.993,0,0,0-5,0,2.993,2.993,0,0,0-5,0,2.993,2.993,0,0,0-5,0A3,3,0,0,0,3,9v1.387l-.189.039a1.478,1.478,0,0,1-1.25-.287A1.5,1.5,0,0,1,1,8.961V3.5a1.483,1.483,0,0,1,.555-1.159,1.515,1.515,0,0,1,1.278-.3,61.635,61.635,0,0,0,26.356,0,1.475,1.475,0,0,1,1.247.289A1.5,1.5,0,0,1,31,3.5Z" transform="translate(0 -1.002)" fill="#ac7d3d"/>
</svg>
