<svg xmlns="http://www.w3.org/2000/svg" width="32" height="22.68" viewBox="0 0 32 22.68">
  <path id="preenchimento" d="M31.724,15.146q.072-.289.126-.573c.02-.106.041-.213.057-.318.029-.192.05-.382.066-.57.014-.161.022-.32.026-.478s.007-.324,0-.482c0-.047,0-.1,0-.142a.478.478,0,0,0-.016-.068,7.065,7.065,0,0,0-3.674-5.6A12,12,0,0,0,18.114,5.6c-.172.061-.343.124-.515.188a5.485,5.485,0,0,1-2.059.483,8.429,8.429,0,0,1-2.629-.755,9.507,9.507,0,0,0-2.969-.835A9.829,9.829,0,0,0,3.894,6.234,8.3,8.3,0,0,0,.134,11.888a9.16,9.16,0,0,0-.123,1.559c0,.015-.007.028-.007.043s0,.04,0,.06a9.747,9.747,0,0,0,.107,1.316c.009.061.021.122.031.184a10.4,10.4,0,0,0,.291,1.275c.007.022.011.044.017.065a11.128,11.128,0,0,0,.478,1.26c.04.09.082.179.125.269a11.808,11.808,0,0,0,.655,1.211A17.44,17.44,0,0,0,16.3,27.338c.447,0,.9-.019,1.345-.057A16.648,16.648,0,0,0,31.373,16.3c.108-.3.2-.586.278-.874C31.678,15.335,31.7,15.241,31.724,15.146ZM12.44,10.913c.187.028.38.053.569.08v1.679a.5.5,0,0,1-.5.5h-2a1.5,1.5,0,0,1-1.5-1.5v-.988c.112-.008.224-.027.336-.032A15.546,15.546,0,0,1,12.44,10.913Zm2.569.28a10.8,10.8,0,0,0,2.917-.45l.085-.021v.951a1.5,1.5,0,0,1-1.5,1.5h-1a1.5,1.5,0,0,1-1.5-1.5v-.557c.331.034.661.069,1,.078Zm10.216-.353a22.292,22.292,0,0,1,2.5.713,1.519,1.519,0,0,1-1.21.619h-2a.5.5,0,0,1-.5-.5V10.606c.431.075.841.154,1.213.235Zm-6.214.832V10.491a7.314,7.314,0,0,1,1.387-.168,18.537,18.537,0,0,1,2.614.134v1.216a1.5,1.5,0,0,1-1.5,1.5h-2a.5.5,0,0,1-.5-.5Zm-11-.892v.892a.5.5,0,0,1-.5.5h-2a1.48,1.48,0,0,1-1.016-.415,14.462,14.462,0,0,1,3.517-.976Zm-4.469,1.4a2.47,2.47,0,0,0,1.969,1h2a1.492,1.492,0,0,0,.842-.26,2.492,2.492,0,0,0,2.158,1.26h2a1.5,1.5,0,0,0,1.267-.7,2.489,2.489,0,0,0,1.734.7h1a2.489,2.489,0,0,0,1.734-.7,1.5,1.5,0,0,0,1.267.7h2a2.492,2.492,0,0,0,2.158-1.26,1.492,1.492,0,0,0,.842.26h2a2.494,2.494,0,0,0,2.165-1.26c.661.263,1.317.547,1.958.873l-.1.158-.107.161c-.071.106-.154.227-.239.349-.05.071-.1.141-.152.217-.092.129-.2.27-.3.411-.062.084-.12.164-.187.251-.121.159-.257.328-.394.5-.064.08-.122.156-.19.238-.21.255-.435.519-.677.789l-.057.061q-.336.373-.711.757c-.093.095-.2.191-.293.286-.185.182-.37.364-.568.546-.122.112-.253.223-.38.335-.187.165-.375.329-.573.491-.1.084-.212.166-.318.25a2.494,2.494,0,0,0-1.373-.413h-1a1.492,1.492,0,0,0-.842.26,2.492,2.492,0,0,0-2.158-1.26h-1a1.5,1.5,0,0,0-1.266.7,2.489,2.489,0,0,0-3.468,0,1.5,1.5,0,0,0-1.267-.7h-1a2.492,2.492,0,0,0-2.158,1.26,1.492,1.492,0,0,0-.842-.26h-1a2.457,2.457,0,0,0-1.711.681,21.7,21.7,0,0,1-3.332-3.1l-.021-.024c-.187-.215-.36-.425-.521-.627l-.105-.135c-.127-.162-.248-.321-.358-.471-.057-.078-.108-.152-.161-.227-.078-.111-.157-.222-.224-.324s-.11-.171-.161-.253-.1-.159-.142-.229c-.01-.017-.015-.029-.025-.045C1.732,13.1,2.843,12.522,3.539,12.178ZM15.906,22.212h-.014c-.3,0-.592-.02-.886-.035-.166-.008-.333-.013-.5-.027V19.673a1.5,1.5,0,0,1,2.562-1.062,1.468,1.468,0,0,1,.439,1.062v2.415l-.038.007a13.994,13.994,0,0,1-1.567.117Zm-2.4-2.539v2.35c-.043-.007-.087-.011-.13-.018-.141-.024-.285-.041-.424-.069-.367-.073-.725-.164-1.078-.263-.077-.021-.155-.039-.231-.062-.389-.116-.767-.247-1.138-.39V19.673a1.5,1.5,0,0,1,1.5-1.5h1a.495.495,0,0,1,.5.5Zm-4,1.115a17.793,17.793,0,0,1-2.37-1.334,1.487,1.487,0,0,1,.87-.281h1a.495.495,0,0,1,.5.5Zm14.016-.9q-.26.16-.529.312c-.158.09-.322.173-.484.258v-.785a.495.495,0,0,1,.5-.5h1a1.5,1.5,0,0,1,.466.088q-.152.106-.306.211Q23.855,19.684,23.525,19.888Zm-2.013,1.053c-.174.077-.35.152-.529.223-.194.077-.387.156-.586.226-.272.1-.554.177-.836.258-.195.056-.386.117-.585.165-.151.036-.31.058-.464.089v-3.23a.495.495,0,0,1,.5-.5h1a1.5,1.5,0,0,1,1.5,1.5ZM1.12,12.058A7.32,7.32,0,0,1,4.441,7.072a8.753,8.753,0,0,1,4.82-1.41c.2,0,.409.006.615.02a8.6,8.6,0,0,1,2.658.764,9.3,9.3,0,0,0,2.949.826,5.993,5.993,0,0,0,2.466-.545c.165-.062.33-.123.493-.181a11,11,0,0,1,9.333,1.21l0,0a6.3,6.3,0,0,1,3.1,4.033c-.146-.072-.3-.134-.442-.2-.2-.093-.4-.186-.595-.274-.289-.127-.581-.245-.874-.36-.19-.075-.38-.152-.571-.222-.324-.118-.65-.223-.978-.326-.165-.052-.328-.109-.493-.158-.493-.143-.99-.273-1.49-.383-.539-.118-1.185-.237-1.9-.336-.009,0-.016-.005-.025-.005h0a21.27,21.27,0,0,0-3.122-.2,11.628,11.628,0,0,0-2.7.449,9.879,9.879,0,0,1-2.651.421,14.158,14.158,0,0,1-1.5-.135c-.009,0-.017-.005-.026-.005h0c-.306-.041-.613-.084-.914-.13a15.754,15.754,0,0,0-3.3-.27c-.243.011-.486.047-.729.07a.474.474,0,0,0-.057-.012.491.491,0,0,0-.162.033,15.376,15.376,0,0,0-4.788,1.313l-.116.054-.032.015-.178.084-.034.016c-.163.077-.364.175-.59.287l-.059.029-.286.146-.08.041-.321.17-.044.023q-.167.091-.331.184l-.132.077-.19.113-.093.055c.014-.1.028-.2.046-.295ZM17.559,26.285q-.552.046-1.1.051A16.415,16.415,0,0,1,2.561,18.6a10.255,10.255,0,0,1-1.39-3.492l.025.033c.034.046.074.1.109.142.078.1.157.207.242.316l.057.075c.031.039.067.081.1.12.063.078.13.158.2.238s.117.143.18.218l.034.041c.06.07.127.142.189.213.079.09.158.178.24.27.151.166.31.334.474.5.081.084.158.166.241.25.244.246.5.493.768.741l.024.023c.276.252.568.5.869.752.095.078.194.154.291.231.217.173.437.343.666.511.071.052.139.106.211.158.009.007.015.017.025.023s.012,0,.018.006c.034.024.072.047.107.072.1.071.2.144.3.213l0,0c.128.086.264.167.395.251s.248.16.376.238c.05.03.1.063.146.093l.036.023c.217.129.445.249.67.371.095.051.185.106.281.155l.059.033c.369.189.75.366,1.14.532.055.023.111.044.167.067l.016.006c.034.014.07.025.1.038.241.1.481.2.73.283l.031.012c.073.025.15.044.224.068.148.049.3.092.451.137q.446.133.906.241c.164.038.329.075.5.109.322.064.65.115.983.159.152.02.3.045.455.06a14.86,14.86,0,0,0,1.489.081h0l.215,0a14.932,14.932,0,0,0,1.613-.12c.167-.021.329-.052.494-.078.357-.057.709-.121,1.053-.2.179-.042.356-.087.532-.135q.493-.133.967-.3c.159-.054.319-.106.476-.164.071-.027.147-.048.218-.075l.059-.026c.272-.108.533-.228.8-.348.026-.012.053-.021.079-.033l.027-.011c.054-.025.111-.048.164-.074.433-.207.851-.43,1.256-.665.11-.064.214-.133.322-.2.293-.178.581-.36.859-.549.133-.091.261-.183.39-.275.177-.127.354-.253.524-.383.007-.006.015-.009.021-.015l0,0c.058-.045.114-.091.171-.136.122-.1.243-.19.361-.286.246-.2.482-.4.712-.607.086-.076.175-.151.259-.227.308-.281.6-.563.881-.844.038-.039.072-.076.109-.114q.358-.366.682-.723c.081-.09.156-.175.233-.264q.248-.281.474-.551c.074-.089.146-.175.216-.262.147-.181.284-.354.415-.524.054-.069.109-.139.16-.206.167-.22.321-.43.458-.623l.014-.019.011-.015a9.854,9.854,0,0,1-.481,1.8A15.633,15.633,0,0,1,17.559,26.285Z" transform="translate(-0.004 -4.658)" fill="#ac7d3d"/>
</svg>
