<svg xmlns="http://www.w3.org/2000/svg" width="32.008" height="26.357" viewBox="0 0 32.008 26.357">
  <path id="profilaxia" d="M24,13.177a7.951,7.951,0,0,0-4.9,1.692l1.607-4.733A5.538,5.538,0,0,0,13.89,3.057l-2.439.725-.137.035a2.915,2.915,0,0,1-1.62,0L7.113,3.057a5.46,5.46,0,0,0-5.56,1.476A5.449,5.449,0,0,0,.3,10.138l1.779,5.238a2.954,2.954,0,0,1-.02,1.885,12.843,12.843,0,0,0,.832,10l.558,1.058a1.615,1.615,0,0,0,1.456.859,1.586,1.586,0,0,0,1.413-.932l2.8-6.11a1.527,1.527,0,0,1,2.771,0l2.8,6.11a1.588,1.588,0,0,0,1.414.932h.04a1.582,1.582,0,0,0,1.413-.854l.532-1c.08-.155.166-.328.251-.506A8,8,0,1,0,24,13.177ZM17.2,26.862l-.531,1a.6.6,0,0,1-1.073-.027l-2.8-6.11a2.525,2.525,0,0,0-4.588,0l-2.8,6.11a.584.584,0,0,1-.528.348.6.6,0,0,1-.545-.323l-.561-1.062a11.883,11.883,0,0,1-.746-9.281,3.9,3.9,0,0,0,0-2.455L1.246,9.817A4.467,4.467,0,0,1,2.274,5.225,4.478,4.478,0,0,1,6.83,4.016l2.583.761a3.945,3.945,0,0,0,.523.112A4.159,4.159,0,0,0,9,6.717a.5.5,0,0,0,.381.6.509.509,0,0,0,.107.012.5.5,0,0,0,.488-.392,3.2,3.2,0,0,1,1.791-2.206l2.408-.709a4.538,4.538,0,0,1,5.586,5.8l-1.781,5.243a3.831,3.831,0,0,0-.182,1.08,7.957,7.957,0,0,0-.183,9.832C17.484,26.274,17.349,26.573,17.2,26.862ZM24,28.177a6.993,6.993,0,0,1-5.359-11.494l.006-.007A7,7,0,1,1,24,28.177Zm3.535-9.328-4.6,4.6L20.467,20.97a.5.5,0,1,0-.707.707l2.828,2.828a.5.5,0,0,0,.707,0l4.949-4.949a.5.5,0,1,0-.707-.707Z" transform="translate(0.005 -2.82)" fill="#ac7d3d"/>
</svg>
