<svg xmlns="http://www.w3.org/2000/svg" width="32" height="31.996" viewBox="0 0 32 31.996">
  <path id="restauracao" d="M26.5,20H17.25a2.109,2.109,0,0,1,.074-.96l1.41-4.181a4.505,4.505,0,0,0-2.35-5.528A1.672,1.672,0,0,0,16.234,9l-.41-.641A1.681,1.681,0,0,0,14.4,7.577H12.678a1.689,1.689,0,0,0-1.687,1.687V9.7a2.1,2.1,0,0,1-1.109-.019L7.82,9.067a4.524,4.524,0,0,0-5.554,5.791l1.411,4.183a2.163,2.163,0,0,1,.029,1.272A5.517,5.517,0,0,0,0,25.5v4A2.5,2.5,0,0,0,2.5,32h27A2.5,2.5,0,0,0,32,29.5v-4A5.507,5.507,0,0,0,26.5,20ZM11.991,9.264a.687.687,0,0,1,.687-.687H14.4a.685.685,0,0,1,.579.316l.41.641a.684.684,0,0,1-.015.763l-.578.832a.685.685,0,0,1-.226.206h0l-1.164.656a.679.679,0,0,1-.772-.066l-.39-.318a.684.684,0,0,1-.253-.532ZM3.214,14.539a3.523,3.523,0,0,1,4.324-4.512l2.059.61c.086.026.175.04.262.058A3.422,3.422,0,0,0,9.2,12.068a.5.5,0,0,0,.38.6.515.515,0,0,0,.108.012.5.5,0,0,0,.488-.392,2.431,2.431,0,0,1,.814-1.325v.115a1.682,1.682,0,0,0,.621,1.308L12,12.7a1.677,1.677,0,0,0,1.9.162l1.164-.656a1.694,1.694,0,0,0,.558-.506l.579-.833a1.676,1.676,0,0,0,.195-.392,3.492,3.492,0,0,1,1.394,4.062l-1.409,4.177a3.136,3.136,0,0,0-.037,1.925h0a.95.95,0,0,0,.025.1,9.482,9.482,0,0,1-.621,7.384l-.407.794a.355.355,0,0,1-.347.2.371.371,0,0,1-.337-.221l-2.231-4.872a2.122,2.122,0,0,0-3.849,0l-2.23,4.87a.37.37,0,0,1-.336.22.346.346,0,0,1-.344-.191l-.442-.855a9.317,9.317,0,0,1-.65-7.16c.02-.042.034-.083.016-.052.011-.022.041-.1.049-.121a3.164,3.164,0,0,0-.013-2.013ZM31,29.5A1.5,1.5,0,0,1,29.5,31H2.5A1.5,1.5,0,0,1,1,29.5v-4a4.518,4.518,0,0,1,2.373-3.954,10.342,10.342,0,0,0,.963,6.983l.443.855A1.368,1.368,0,0,0,6,30.111h.044a1.371,1.371,0,0,0,1.215-.8l2.229-4.866a1.121,1.121,0,0,1,2.032,0L13.745,29.3a1.384,1.384,0,0,0,2.479.071l.406-.792A10.411,10.411,0,0,0,17.479,21H26.5A4.5,4.5,0,0,1,31,25.5ZM17.419,7.929a.5.5,0,0,0,.354-.146L19.54,6.015,20.6,7.075a.5.5,0,0,0,.707,0l1.414-1.414,6.718,6.717a1.5,1.5,0,1,0,2.121-2.121L24.693,3.389A2.488,2.488,0,0,0,24.136.711a2.558,2.558,0,0,0-3.536,0L17.772,3.539a.5.5,0,0,0,0,.707l1.061,1.061L17.065,7.075a.5.5,0,0,0,.354.854Zm13.435,3.035a.5.5,0,1,1-.707.707L23.429,4.954l.708-.708ZM18.833,3.893l2.475-2.475a1.537,1.537,0,0,1,2.122,0,1.5,1.5,0,0,1,0,2.121L20.954,6.015Z" transform="translate(0 -0.002)" fill="#ac7d3d"/>
</svg>
