<svg xmlns="http://www.w3.org/2000/svg" width="31" height="32" viewBox="0 0 31 32">
  <path id="tratamentos4" d="M28.5,23.279V20.5A2.5,2.5,0,0,0,26,18H24a2.48,2.48,0,0,0-1.66.645A2.5,2.5,0,0,0,20,17H18a2.491,2.491,0,0,0-2,1.015A2.491,2.491,0,0,0,14,17H12a2.5,2.5,0,0,0-2.34,1.645A2.48,2.48,0,0,0,8,18H6a2.5,2.5,0,0,0-2.5,2.5v2.779A4.478,4.478,0,0,0,.5,27.5v2A2.5,2.5,0,0,0,3,32H29a2.5,2.5,0,0,0,2.5-2.5v-2a4.478,4.478,0,0,0-3-4.221Zm-6-2.779A1.5,1.5,0,0,1,24,19h2a1.5,1.5,0,0,1,1.5,1.5l0,1.5h-1v-.5A.5.5,0,0,0,26,21H24a.5.5,0,0,0-.5.5V22h-1Zm3,1.5v1h-1V22Zm-3,1h1v.5a.5.5,0,0,0,.5.5h2a.5.5,0,0,0,.5-.5V23h1v.511a.489.489,0,0,0-.014.1A2.5,2.5,0,0,1,22.5,23.5Zm-6-3.5A1.5,1.5,0,0,1,18,18h2a1.5,1.5,0,0,1,1.5,1.5V22h-1v-.5A.5.5,0,0,0,20,21H18a.5.5,0,0,0-.5.5V22h-1Zm3,2.5v1h-1V22Zm-3,1h1v.5a.5.5,0,0,0,.5.5h2a.5.5,0,0,0,.5-.5V23h1v.5a2.5,2.5,0,1,1-5,0Zm-6-3.5A1.5,1.5,0,0,1,12,18h2a1.5,1.5,0,0,1,1.5,1.5V22h-1v-.5A.5.5,0,0,0,14,21H12a.5.5,0,0,0-.5.5V22h-1Zm3,2.5v1h-1V22Zm-3,1h1v.5a.5.5,0,0,0,.5.5h2a.5.5,0,0,0,.5-.5V23h1v.5a2.5,2.5,0,1,1-5,0Zm-6-2.5A1.5,1.5,0,0,1,6,19H8a1.5,1.5,0,0,1,1.5,1.5V22h-1v-.5A.5.5,0,0,0,8,21H6a.5.5,0,0,0-.5.5V22h-1Zm3,1.5v1h-1V22Zm-3,1h1v.5A.5.5,0,0,0,6,24H8a.5.5,0,0,0,.5-.5V23h1v.5a2.5,2.5,0,1,1-4.991.111A.6.6,0,0,0,4.5,23.5Zm26,6.5A1.5,1.5,0,0,1,29,31H3a1.5,1.5,0,0,1-1.5-1.5v-2a3.489,3.489,0,0,1,2.1-3.2,3.471,3.471,0,0,0,6.4.978,3.47,3.47,0,0,0,6,0,3.457,3.457,0,0,0,6,0,3.484,3.484,0,0,0,6.4-.977,3.489,3.489,0,0,1,2.1,3.2ZM29,0H3A2.5,2.5,0,0,0,.5,2.5v2a4.478,4.478,0,0,0,3,4.221V11.5A2.5,2.5,0,0,0,6,14H8a2.48,2.48,0,0,0,1.66-.645A2.5,2.5,0,0,0,12,15h2a2.491,2.491,0,0,0,2-1.015A2.491,2.491,0,0,0,18,15h2a2.5,2.5,0,0,0,2.34-1.645A2.48,2.48,0,0,0,24,14h2a2.5,2.5,0,0,0,2.5-2.5V8.721a4.478,4.478,0,0,0,3-4.221v-2A2.5,2.5,0,0,0,29,0ZM9.5,11.5A1.5,1.5,0,0,1,8,13H6a1.5,1.5,0,0,1-1.5-1.5V10h1v.5A.5.5,0,0,0,6,11H8a.5.5,0,0,0,.5-.5V10h1ZM6.5,10V9h1v1Zm3-1h-1V8.5A.5.5,0,0,0,8,8H6a.5.5,0,0,0-.5.5V9h-1V8.5a2.5,2.5,0,0,1,5,0Zm6,3.5A1.5,1.5,0,0,1,14,14H12a1.5,1.5,0,0,1-1.5-1.5V10h1v.5a.5.5,0,0,0,.5.5h2a.5.5,0,0,0,.5-.5V10h1Zm-3-2.5V9h1v1Zm3-1h-1V8.5A.5.5,0,0,0,14,8H12a.5.5,0,0,0-.5.5V9h-1V8.5a2.5,2.5,0,0,1,5,0Zm6,3.5A1.5,1.5,0,0,1,20,14H18a1.5,1.5,0,0,1-1.5-1.5V10h1v.5a.5.5,0,0,0,.5.5h2a.5.5,0,0,0,.5-.5V10h1Zm-3-2.5V9h1v1Zm3-1h-1V8.5A.5.5,0,0,0,20,8H18a.5.5,0,0,0-.5.5V9h-1V8.5a2.5,2.5,0,0,1,5,0Zm6,2.5A1.5,1.5,0,0,1,26,13H24a1.5,1.5,0,0,1-1.5-1.5V10h1v.5a.5.5,0,0,0,.5.5h2a.5.5,0,0,0,.5-.5V10h1Zm-3-1.5V9h1v1Zm3-1h-1V8.5A.5.5,0,0,0,26,8H24a.5.5,0,0,0-.5.5V9h-1V8.5a2.5,2.5,0,0,1,5,0Zm3-4.5a3.49,3.49,0,0,1-2.1,3.2A3.481,3.481,0,0,0,22,6.726a3.47,3.47,0,0,0-6,0,3.47,3.47,0,0,0-6,0A3.481,3.481,0,0,0,3.6,7.7,3.489,3.489,0,0,1,1.5,4.5v-2A1.5,1.5,0,0,1,3,1H29a1.5,1.5,0,0,1,1.5,1.5Z" transform="translate(-0.5)" fill="#ac7d3d"/>
</svg>
