<svg xmlns="http://www.w3.org/2000/svg" width="28.382" height="32.02" viewBox="0 0 28.382 32.02">
  <path id="tratamentos2" d="M14.629,4.2l-2.589.758a.508.508,0,0,0-.066.017l-.1.034a3.129,3.129,0,0,1-1.74,0L7.37,4.2a5.8,5.8,0,0,0-3.363.026,9.425,9.425,0,0,1-.52-1.732.5.5,0,0,0-.975,0c-.578,2.56-.938,2.919-3.5,3.5a.5.5,0,0,0-.39.488.5.5,0,0,0,.39.488,12.668,12.668,0,0,1,1.372.375,5.691,5.691,0,0,0-.24,4.367l1.89,5.59a3.153,3.153,0,0,1-.021,2.033A13.706,13.706,0,0,0,2.9,29.982l.6,1.129a1.6,1.6,0,0,0,1.526.9,1.671,1.671,0,0,0,1.48-.973l2.979-6.518a1.669,1.669,0,0,1,3.031,0L15.5,31.038a1.669,1.669,0,0,0,1.479.97h.043a1.672,1.672,0,0,0,1.483-.9l.561-1.061a13.849,13.849,0,0,0,1.6-6.443,13.938,13.938,0,0,0-.7-4.344,3.145,3.145,0,0,1,.008-1.965l1.89-5.589A5.869,5.869,0,0,0,14.629,4.2ZM3,4.42a4.546,4.546,0,0,0,.27.558c0,.012,0,.025.007.037a.459.459,0,0,0,.041.061,3.166,3.166,0,0,0,1.74,1.4A3.209,3.209,0,0,0,3,8.534,3.155,3.155,0,0,0,1.382,6.689c-.012-.009-.019-.021-.031-.029a.478.478,0,0,0-.118-.043c-.1-.046-.181-.1-.29-.14A3.209,3.209,0,0,0,3,4.42Zm17.906,6.967-1.89,5.59a4.153,4.153,0,0,0-.012,2.6,12.934,12.934,0,0,1,.655,4.034,12.838,12.838,0,0,1-1.482,5.976l-.561,1.06a.656.656,0,0,1-.616.365.663.663,0,0,1-.6-.389L13.423,24.1a2.669,2.669,0,0,0-4.848,0L5.6,30.615a.676.676,0,0,1-1.215.026l-.6-1.128a12.738,12.738,0,0,1-.8-9.93,4.091,4.091,0,0,0,0-2.606l-1.89-5.592a4.711,4.711,0,0,1,.183-3.593c.634.477.906,1.212,1.236,2.67a.5.5,0,0,0,.975,0c.578-2.56.938-2.919,3.5-3.5a.5.5,0,0,0,0-.976,5.434,5.434,0,0,1-2.369-.91,4.867,4.867,0,0,1,2.473.078l2.762.81a4.158,4.158,0,0,0,.6.124A4.415,4.415,0,0,0,9.427,8.075a.5.5,0,0,0,.381.6.509.509,0,0,0,.107.012.5.5,0,0,0,.488-.392A3.452,3.452,0,0,1,12.34,5.909l2.571-.753a4.869,4.869,0,0,1,6,6.23Zm5.711-8.331C24.6,2.6,24.35,2.346,23.895.333a.518.518,0,0,0-.975,0C22.465,2.346,22.21,2.6,20.2,3.055a.5.5,0,0,0,0,.976c2.014.455,2.268.709,2.724,2.722a.5.5,0,0,0,.975,0c.455-2.013.71-2.268,2.723-2.722a.5.5,0,0,0,0-.976Zm-3.21,1.882a2.574,2.574,0,0,0-1.4-1.395,2.573,2.573,0,0,0,1.4-1.4,2.571,2.571,0,0,0,1.395,1.4,2.57,2.57,0,0,0-1.395,1.395Z" transform="translate(1.375 0.01)" fill="#ac7d3d"/>
</svg>
