<svg xmlns="http://www.w3.org/2000/svg" width="32" height="27.734" viewBox="0 0 32 27.734">
  <path id="tratamentos3" d="M31.184,19.721a2.5,2.5,0,0,0-1.407-.637,5.293,5.293,0,0,0-.144-.939,1.173,1.173,0,0,0-.776-.815h0a9.149,9.149,0,0,0-5.729.025,1.178,1.178,0,0,0-.768.814,5.2,5.2,0,0,0-.126,1.578l-.619.061c-.426.039-.85.058-1.275.058h-.583a5.273,5.273,0,0,0-.124-1.722,1.173,1.173,0,0,0-.776-.815h0a9.149,9.149,0,0,0-5.729.025,1.178,1.178,0,0,0-.768.814,5.2,5.2,0,0,0-.122,1.7H11.66q-.639,0-1.271-.058l-.629-.062a5.265,5.265,0,0,0-.127-1.6,1.173,1.173,0,0,0-.776-.815h0a9.149,9.149,0,0,0-5.729.025,1.178,1.178,0,0,0-.768.814,5.229,5.229,0,0,0-.141.917A2.5,2.5,0,0,0,0,21.568v5.8a2.5,2.5,0,0,0,2.5,2.5h27a2.5,2.5,0,0,0,2.5-2.5v-5.8a2.5,2.5,0,0,0-.816-1.847ZM23.33,18.412a.182.182,0,0,1,.128-.112,8.111,8.111,0,0,1,5.089-.019.173.173,0,0,1,.115.106,4.273,4.273,0,0,1-.369,3.033l-.127.24-.4-.871a1.944,1.944,0,0,0-3.534,0l-.4.871-.141-.267a4.206,4.206,0,0,1-.363-2.982Zm-10,0a.182.182,0,0,1,.128-.112,8.111,8.111,0,0,1,5.089-.019.173.173,0,0,1,.115.106,4.273,4.273,0,0,1-.369,3.033l-.127.24-.4-.871a1.944,1.944,0,0,0-3.534,0l-.4.871-.141-.267a4.206,4.206,0,0,1-.363-2.982Zm-10,0a.182.182,0,0,1,.128-.112,8.111,8.111,0,0,1,5.089-.019.173.173,0,0,1,.115.106,4.273,4.273,0,0,1-.369,3.033l-.127.24-.4-.871a1.944,1.944,0,0,0-3.534,0l-.4.871-.141-.267a4.206,4.206,0,0,1-.363-2.982ZM31,27.367a1.5,1.5,0,0,1-1.5,1.5H2.5a1.5,1.5,0,0,1-1.5-1.5v-5.8A1.479,1.479,0,0,1,2.252,20.1a5.2,5.2,0,0,0,.557,1.762l.215.407a.931.931,0,0,0,.84.491.918.918,0,0,0,.814-.538l.464-1.016a.97.97,0,0,1,1.716,0l.466,1.017a.916.916,0,0,0,.813.537h.025a.915.915,0,0,0,.814-.491l.2-.381a5.265,5.265,0,0,0,.427-1.15l.69.068q.683.062,1.365.062h.757a5.185,5.185,0,0,0,.391.994l.215.407a.922.922,0,0,0,1.654-.047l.464-1.016a.97.97,0,0,1,1.716,0l.466,1.017a.916.916,0,0,0,.813.537h.025a.915.915,0,0,0,.814-.491l.2-.381a5.272,5.272,0,0,0,.4-1.021h.763c.455,0,.91-.021,1.369-.062l.681-.067a5.173,5.173,0,0,0,.419,1.123l.215.407a.922.922,0,0,0,1.654-.047l.464-1.016a.97.97,0,0,1,1.716,0l.466,1.017a.916.916,0,0,0,.813.537h.025a.915.915,0,0,0,.814-.491l.2-.381a5.283,5.283,0,0,0,.565-1.794,1.511,1.511,0,0,1,.767.367A1.476,1.476,0,0,1,31,21.568Zm-4.864-17.5a.5.5,0,0,0-.5.5v2.8l-.561-.561a.5.5,0,1,0-.707.707l1.414,1.414a.5.5,0,0,0,.707,0L27.9,13.313a.5.5,0,1,0-.707-.707l-.562.561v-2.8a.5.5,0,0,0-.5-.5ZM22.478,7.349a.5.5,0,0,0,.37.329l.564.119A12.44,12.44,0,0,0,26,8.071a12.426,12.426,0,0,0,2.6-.276l.548-.116a.5.5,0,0,0,.37-.329L30.2,5.341a2.429,2.429,0,0,0-2.988-3.108l-.99.292a.818.818,0,0,1-.444,0l-.991-.292A2.429,2.429,0,0,0,21.8,5.341Zm.592-3.777a1.411,1.411,0,0,1,1.435-.38l.78.23a1.891,1.891,0,0,0-.162.443.5.5,0,0,0,.38.6.519.519,0,0,0,.108.012.5.5,0,0,0,.488-.392.914.914,0,0,1,.507-.627l.89-.262a1.429,1.429,0,0,1,1.758,1.829l-.588,1.738-.27.057a11.384,11.384,0,0,1-4.777,0l-.285-.061-.588-1.737a1.406,1.406,0,0,1,.323-1.449ZM2.478,7.349a.5.5,0,0,0,.37.329l.564.119A12.44,12.44,0,0,0,6,8.071a12.425,12.425,0,0,0,2.6-.276l.548-.116a.5.5,0,0,0,.37-.329L10.2,5.341A2.429,2.429,0,0,0,7.213,2.233l-.99.292a.818.818,0,0,1-.444,0l-.991-.292A2.429,2.429,0,0,0,1.8,5.341Zm.592-3.777A1.411,1.411,0,0,1,4.5,3.192l.78.23a1.891,1.891,0,0,0-.162.443.5.5,0,0,0,.38.6.519.519,0,0,0,.108.012A.5.5,0,0,0,6.1,4.081a.914.914,0,0,1,.507-.627l.89-.262A1.429,1.429,0,0,1,9.254,5.021L8.666,6.759l-.27.057a11.384,11.384,0,0,1-4.777,0l-.285-.061L2.746,5.021a1.406,1.406,0,0,1,.323-1.449Zm3.066,6.3a.5.5,0,0,0-.5.5v2.8l-.561-.561a.5.5,0,1,0-.707.707l1.414,1.414a.5.5,0,0,0,.707,0L7.9,13.313a.5.5,0,1,0-.707-.707l-.562.561v-2.8a.5.5,0,0,0-.5-.5Zm6.342-2.519a.5.5,0,0,0,.37.329l.564.119A12.44,12.44,0,0,0,16,8.071a12.425,12.425,0,0,0,2.6-.276l.548-.116a.5.5,0,0,0,.37-.329L20.2,5.341a2.429,2.429,0,0,0-2.988-3.108l-.99.292a.818.818,0,0,1-.444,0l-.991-.292A2.429,2.429,0,0,0,11.8,5.341Zm.592-3.777a1.412,1.412,0,0,1,1.435-.38l.78.23a1.891,1.891,0,0,0-.162.443.5.5,0,0,0,.38.6.518.518,0,0,0,.108.012.5.5,0,0,0,.488-.392.914.914,0,0,1,.507-.627l.89-.262a1.429,1.429,0,0,1,1.758,1.829l-.588,1.738-.27.057a11.384,11.384,0,0,1-4.777,0l-.285-.061-.588-1.737a1.406,1.406,0,0,1,.323-1.449Zm3.066,6.3a.5.5,0,0,0-.5.5v2.8l-.561-.561a.5.5,0,1,0-.707.707l1.414,1.414a.5.5,0,0,0,.707,0L17.9,13.313a.5.5,0,1,0-.707-.707l-.562.561v-2.8a.5.5,0,0,0-.5-.5Z" transform="translate(0 -2.133)" fill="#ac7d3d"/>
</svg>
