<svg xmlns="http://www.w3.org/2000/svg" width="25.461" height="32.006" viewBox="0 0 25.461 32.006">
  <path id="tratamentos1" d="M26.857,2.053A6.547,6.547,0,0,0,20.177.282l-3,.887-.16.042a3.66,3.66,0,0,1-2.04,0L11.82.282A6.548,6.548,0,0,0,5.14,2.053a6.562,6.562,0,0,0-1.5,6.776l2.75,6.82,0,0a.5.5,0,0,0,.094.143c.005.006.008.014.013.02a.724.724,0,0,0,.348.146H8v2.5a1.5,1.5,0,0,0,1.5,1.5h.582L12.008,29.6l0,.008v.006l0,.007a.5.5,0,0,0,.233.314l3.5,2a.5.5,0,0,0,.5,0l3.5-2a.5.5,0,0,0,.242-.336l1.184-5.922,0-.017.74-3.7H22.5a1.5,1.5,0,0,0,1.5-1.5v-2.5h1.14a.486.486,0,0,0,.247-.075.463.463,0,0,0,.05-.033.491.491,0,0,0,.165-.2l0,0L28.362,8.8a6.552,6.552,0,0,0-1.505-6.749ZM11.108,20H20.64l-8.953,2.893Zm7.944,9.179L16,30.926,13.683,29.6l5.648-1.815Zm.5-2.515-6.685,2.148-.4-2.014,7.549-2.439Zm.686-3.428-7.971,2.575-.386-1.932,8.8-2.842ZM23,18.462a.5.5,0,0,1-.5.5H9.5a.5.5,0,0,1-.5-.5v-2.5H23ZM27.425,8.455,24.8,14.962H7.2L4.582,8.482A5.568,5.568,0,0,1,5.861,2.746a5.568,5.568,0,0,1,5.676-1.5l3.162.931a4.7,4.7,0,0,0,.83.152,5,5,0,0,0-1.262,2.352.5.5,0,0,0,.38.6.518.518,0,0,0,.108.012.5.5,0,0,0,.488-.392A4.024,4.024,0,0,1,17.508,2.11l2.952-.869a5.567,5.567,0,0,1,5.676,1.5,5.559,5.559,0,0,1,1.289,5.709Z" transform="translate(-3.269 0.005)" fill="#ac7d3d"/>
</svg>
